<?xml version="1.0" encoding="UTF-8"?>
<svg width="1200pt" height="1200pt" version="1.1" viewBox="0 0 1200 1200" xmlns="http://www.w3.org/2000/svg">
 <path d="m907.49 753.78c-0.011719 0-0.011719-0.011719-0.023437-0.023438-23.855-10.535-42.91-21.121-58.273-32.375-22.262-16.273-41.867-35.855-56.688-56.605-20.09-28.129-27.254-51.898-27.254-64.777 0-12.875 7.1641-36.66 27.254-64.777 14.809-20.746 34.414-40.32 56.688-56.617 15.359-11.258 34.414-21.828 58.273-32.363 0.12109-0.058594 0.20312-0.16797 0.32422-0.22656 70.645-30.395 113.5-71.566 113.5-117.56 0-95.699-185.04-170.65-421.27-170.65-236.23 0-421.29 74.953-421.29 170.64 0 45.996 42.84 87.18 113.5 117.56 0.12109 0.058594 0.19141 0.16797 0.32422 0.22656 23.855 10.535 42.91 21.121 58.273 32.375 22.262 16.273 41.867 35.855 56.688 56.605 20.09 28.129 27.254 51.898 27.254 64.777 0 12.875-7.1641 36.66-27.254 64.777-14.809 20.746-34.414 40.32-56.688 56.617-15.359 11.258-34.414 21.828-58.273 32.363-0.011719 0.011718-0.023437 0.023437-0.035156 0.023437-73.367 31.246-113.77 73.066-113.77 117.77 0 95.699 185.04 170.65 421.27 170.65 236.23 0 421.27-74.953 421.27-170.65-0.011718-44.68-40.43-86.5-113.8-117.76zm-166.23-153.78c0 3.9258 0.52734 8.1836 1.2969 12.574-15.445 21.457-68.785 40.824-142.55 40.824s-127.11-19.379-142.54-40.824c0.76953-4.3906 1.2969-8.6523 1.2969-12.574 0-11.566-3.5273-25.453-9.793-40.117 35.988 17.617 90.48 28.297 151.03 28.297s115.05-10.68 151.04-28.297c-6.2617 14.664-9.7891 28.551-9.7891 40.117zm-411.35-182.57c0-54.758 123.68-101.03 270.1-101.03 146.41 0 270.1 46.262 270.1 101.03 0 6.4688-1.9062 12.91-5.3633 19.285-31.129 10.414-66.625 19.055-105.12 25.5-36.047-20.484-95.496-32.965-159.6-32.965-64.02 0-123.53 12.48-159.59 32.965-38.52-6.4453-74.027-15.098-105.17-25.512-3.4648-6.3633-5.3516-12.809-5.3516-19.273zm409.27 47.961c-43.547 6.2266-90.492 9.6953-139.18 9.6953s-95.617-3.457-139.16-9.6953c34.703-15.156 85.117-24.145 139.16-24.145 54.121 0.003906 104.5 8.9883 139.18 24.145zm-353.48 10.645c62.449 14.676 135.5 23.051 214.31 23.051 78.816 0 151.86-8.375 214.31-23.051-1.7148 1.5117-3.3477 3.0977-5.0273 4.6445-50.977 23.688-127.18 37.777-209.28 37.777-81.984 0-158.39-14.16-209.43-37.906-1.6289-1.5039-3.2148-3.0391-4.8828-4.5156zm214.31 54.422c70.789 0 137.52-10.402 188.34-28.414-5.4844 6.2773-10.691 12.672-15.371 19.223-4.6211 6.457-8.7461 13.008-12.457 19.523-32.016 21.434-92.93 35.375-160.51 35.375-67.57 0-128.48-13.934-160.51-35.375-3.707-6.5156-7.8359-13.066-12.457-19.523-4.7031-6.5742-9.9375-12.996-15.445-19.297 50.906 18.047 117.76 28.488 188.41 28.488zm-397.27-202.02c0-79.488 181.93-146.65 397.27-146.65s397.27 67.164 397.27 146.65c0 39.66-45.301 76.246-117.45 102.96 1.3555-4.6094 2.2695-9.2539 2.2695-13.969 0-63.371-123.91-113.03-282.1-113.03-158.18 0-282.1 49.656-282.1 113.03 0 4.7148 0.89844 9.3594 2.2578 13.969-72.133-26.715-117.43-63.301-117.43-102.96zm251.35 298.12c24.359 23.062 79.789 38.844 145.92 38.844 66.121 0 121.56-15.77 145.92-38.844 5.1953 16.441 14.508 34.621 27.047 52.164 3.2266 4.5234 6.8164 8.9414 10.43 13.332-1.1523 32.352-74.496 66.684-183.39 66.684-108.9 0-182.24-34.332-183.39-66.684 3.6133-4.3906 7.1992-8.8086 10.43-13.332 12.531-17.543 21.855-35.734 27.039-52.164zm-47.254 76.609c13.766 38.699 93.539 67.559 193.18 67.559 99.625 0 179.41-28.859 193.18-67.559 12.492 13.57 26.496 26.363 41.832 37.57 7.7891 5.7109 16.488 11.219 26.027 16.633 5.9141 8.2695 9.0586 16.754 9.0586 25.188 0 54.758-123.68 101.03-270.1 101.03-146.41 0-270.1-46.262-270.1-101.03 0-9.3242 3.7305-17.762 9.0586-25.188 9.5391-5.4102 18.238-10.922 26.027-16.621 15.344-11.219 29.359-24.012 41.84-37.582zm193.18 315.04c-215.34 0-397.27-67.164-397.27-146.65 0-34.523 35.316-68.555 99.457-95.82 0.011718 0 0.023437 0 0.046875-0.011719 6.3711-2.8203 12.434-5.6406 18.203-8.4961-1.6562 5.0508-2.5312 10.176-2.5312 15.336 0 63.371 123.91 113.03 282.1 113.03 158.18 0 282.1-49.656 282.1-113.03 0-5.1602-0.89844-10.285-2.5547-15.348 5.7852 2.8555 11.844 5.6875 18.227 8.5078 0.023438 0.011719 0.058594 0 0.085938 0.023438 0.023437 0.011719 0.035156 0.035156 0.058593 0.035156 64.066 27.266 99.359 61.273 99.359 95.773 0 79.488-181.93 146.65-397.27 146.65z"/>
</svg>
